:SAMPLES-PER-SECOND 30
:FULLY-SPECIFIED
:DEGREES
93
root  34.84169367 36.50677298 -14.9139945 8.552890778 -6.179097652 4.179158211
lowerback  -7.189869881 -1.357509971 -0.853445828
upperback  -4.01196003 -1.336619973 -3.236969948
thorax  -0.1677460074 -0.5178750157 -2.950109959
lowerneck  -2.363670111 -17.15279961 -13.30459976
upperneck  14.38479996 -24.12330055 13.70559978
head  8.143219948 -11.28079987 4.043529987
lclavicle  0 -4.497500157e-015 -2.743230041e-014
lhumerus  -47.53889847 26.61490059 66.3871994
lradius  -0.04083274677 -6.507048965e-006 30.96290016
lwrist  4.824992743e-007 -3.790274832e-007 -26.51300049
lhand  -4.424073174e-031 -37.04510117 -10.63290024
lfingers  90 7.125020027 -90
lthumb  94.8749444 -25.4642751 101.220221
rclavicle  0 -4.497500157e-015 -2.743230041e-014
rhumerus  -55.77230072 -25.75769997 -22.56010056
rradius  -5.16745672e-007 2.214343908e-008 106.5240021
rwrist  -7.499573258e-005 0.03438235447 -179.2310638
rhand  -1.769638061e-031 3.889300108 -6.919859886
rfingers  -90 -7.125020027 -90
rthumb  -84.88097321 -9.030612736 -60.28548092
rfemur  -13.08385086 16.33213806 12.23984432
rtibia  -1.597023606 -1.623602748 21.70738983
rfoot  -0.06048747152 -22.75931358 -35.50701904
rtoes  4.18977977 19.57381598 -102.3342277
lfemur  -8.332996368 -16.99687004 -21.15438843
ltibia  2.676988363 -1.603471994 14.9318161
lfoot  1.120368838 -22.5766964 38.20152283
ltoes  -8.451836462 -18.19304598 -115.4507352
94
root  34.84301229 36.50730463 -14.91151194 8.543839455 -6.260128975 4.198945522
lowerback  -7.216479778 -1.369940042 -0.9087238312
upperback  -3.996200085 -1.350110054 -3.22055006
thorax  -0.1354680061 -0.5240300298 -2.90357995
lowerneck  -2.138910055 -17.32329941 -13.36330032
upperneck  14.23279953 -24.37590218 13.78479958
head  8.108469963 -11.41520023 4.054490089
lclavicle  0 -4.497500157e-015 -2.743230041e-014
lhumerus  -47.48949814 26.69039917 66.39160156
lradius  -0.04108655825 -6.507048965e-006 30.9253006
lwrist  4.824992743e-007 -3.790274832e-007 -26.50650024
lhand  -4.424282844e-031 -37.04869843 -10.64490032
lfingers  90 7.125020027 -90
lthumb  94.87930475 -25.4760343 101.2253345
rclavicle  0 -4.497500157e-015 -2.743230041e-014
rhumerus  -55.01890182 -25.96960258 -21.92669868
rradius  -5.16745672e-007 2.214343908e-008 106.0139999
rwrist  -7.499573258e-005 0.03438235447 -179.220993
rhand  -1.770222602e-031 4.158299923 -6.847420216
rfingers  -90 -7.125020027 -90
rthumb  -84.78087114 -9.109478964 -60.01714305
rfemur  -13.08046913 16.29904366 12.20769215
rtibia  -1.597210884 -1.652796865 21.70152473
rfoot  -0.03729368374 -22.80019379 -35.40275192
rtoes  4.200630217 19.57157748 -102.3666168
lfemur  -8.266181946 -16.98370171 -21.22032356
ltibia  2.725674629 -1.611512542 14.86214161
lfoot  1.146858931 -22.54524231 38.28826904
ltoes  -8.453364206 -18.19235517 -115.4556284
95
root  34.84418674 36.50771314 -14.91027442 8.535172462 -6.348204136 4.225801468
lowerback  -7.215310097 -1.356340051 -0.906326592
upperback  -3.999870062 -1.331259966 -3.237020016
thorax  -0.1395670027 -0.5144460201 -2.920660019
lowerneck  -1.946499944 -17.51779938 -13.37940025
upperneck  14.14000034 -24.66250229 13.83899975
head  8.095290184 -11.55970001 4.04324007
lclavicle  0 -4.497500157e-015 -2.743230041e-014
lhumerus  -47.4496994 26.70949936 66.36869812
lradius  -0.04133730382 -6.507048965e-006 30.8708992
lwrist  4.824992743e-007 -3.790274832e-007 -26.63010025
lhand  -4.420563922e-031 -36.98479843 -10.71949959
lfingers  90 7.125020027 -90
lthumb  94.8653185 -25.551521 101.1637384
rclavicle  0 -4.497500157e-015 -2.743230041e-014
rhumerus  -54.42240143 -26.14289856 -21.32330132
rradius  -5.16745672e-007 2.214343908e-008 105.5800018
rwrist  -7.499573258e-005 0.03438235447 -179.1159973
rhand  -1.769851709e-031 3.989739895 -6.760369778
rfingers  -90 -7.125020027 -90
rthumb  -84.77701766 -9.175002644 -60.17472791
rfemur  -13.08168983 16.29541397 12.16951561
rtibia  -1.601022363 -1.697973847 21.7003727
rfoot  -0.02668392658 -22.87010956 -35.32843781
rtoes  4.197864485 19.57214864 -102.3583607
lfemur  -8.203098297 -16.99843025 -21.29926682
ltibia  2.774399042 -1.65334022 14.79913235
lfoot  1.163086891 -22.44486427 38.36853027
ltoes  -8.48598485 -18.1775678 -115.5601531
96
root  34.84543628 36.50758097 -14.90843465 8.520380974 -6.437502861 4.249757767
lowerback  -7.213850498 -1.355760098 -0.8999652267
upperback  -4.008790016 -1.329450011 -3.256330013
thorax  -0.1502059996 -0.5132219791 -2.944050074
lowerneck  -1.760540009 -17.67169952 -13.47799969
upperneck  14.1026001 -24.90620041 13.98560047
head  8.119669914 -11.67720032 4.074729919
lclavicle  0 -4.497500157e-015 -2.743230041e-014
lhumerus  -47.41519928 26.61590004 66.37969971
lradius  -0.04158485681 -6.507048965e-006 30.85630035
lwrist  4.824992743e-007 -3.790274832e-007 -26.61330032
lhand  -4.421249942e-031 -36.9966011 -10.67780018
lfingers  90 7.125020027 -90
lthumb  94.86194798 -25.51012748 101.1726249
rclavicle  0 -4.497500157e-015 -2.743230041e-014
rhumerus  -53.89870071 -26.34840012 -20.82010078
rradius  -5.16745672e-007 2.214343908e-008 105.1389999
rwrist  -7.499573258e-005 0.03438235447 -178.6230011
rhand  -1.770559205e-031 4.305520058 -6.522260189
rfingers  -90 -7.125020027 -90
rthumb  -84.5803041 -9.399525214 -59.84681204
rfemur  -13.06189919 16.30065536 12.13510323
rtibia  -1.604461074 -1.760256767 21.67604446
rfoot  -0.01921202242 -22.97698212 -35.27897263
rtoes  4.183006191 19.57521032 -102.31401
lfemur  -8.170161247 -16.97736549 -21.35773468
ltibia  2.798159122 -1.698298097 14.78347015
lfoot  1.166874409 -22.36111069 38.38648605
ltoes  -8.508223445 -18.1674462 -115.6314583
97
root  34.84795638 36.50681503 -14.90645071 8.500687599 -6.525129795 4.264794827
lowerback  -7.241439342 -1.371230006 -0.9508189559
upperback  -4.001999855 -1.345360041 -3.257750034
thorax  -0.1273660064 -0.5200710297 -2.918629885
lowerneck  -1.610120058 -17.80319977 -13.6008997
upperneck  14.08469963 -25.12169838 14.15970039
head  8.160400391 -11.77789974 4.118000031
lclavicle  0 -4.497500157e-015 -2.743230041e-014
lhumerus  -47.40819931 26.61190033 66.37020111
lradius  -0.04182909802 -6.507048965e-006 30.86477089
lwrist  4.824992743e-007 -3.790274832e-007 -26.68029976
lhand  -0 -37.00920105 -10.67479992
lfingers  90 7.125020027 -90
lthumb  94.86723263 -25.50673709 101.1858721
rclavicle  0 -4.497500157e-015 -2.743230041e-014
rhumerus  -53.38270187 -26.57089996 -20.34790039
rradius  -5.16745672e-007 2.214343908e-008 104.762001
rwrist  -7.499573258e-005 0.03438235447 -178.272995
rhand  -1.770409316e-031 4.240600109 -6.721439838
rfingers  -90 -7.125020027 -90
rthumb  -84.69727582 -9.223480689 -59.92655664
rfemur  -13.03661728 16.32322884 12.11099625
rtibia  -1.603157401 -1.780955672 21.64875984
rfoot  0.01335828099 -22.99531555 -35.20528412
rtoes  4.173571999 19.5771484 -102.2858533
lfemur  -8.153800964 -16.97821045 -21.40182114
ltibia  2.79853034 -1.761973023 14.80578327
lfoot  1.155968428 -22.25479889 38.38174438
ltoes  -8.487998526 -18.17665266 -115.5666081
98
root  34.85121539 36.50663481 -14.90447277 8.508270264 -6.611253738 4.271439075
lowerback  -7.260210037 -1.386049986 -0.9544981718
upperback  -3.979739904 -1.361960053 -3.307940006
thorax  -0.09600879997 -0.5281130075 -2.970390081
lowerneck  -1.434239984 -17.95639992 -13.56949997
upperneck  13.98040009 -25.36230087 14.30070019
head  8.146989822 -11.89039993 4.134119987
lclavicle  0 -4.497500157e-015 -2.743230041e-014
lhumerus  -47.36930084 26.59000015 66.29910278
lradius  -0.04206990823 -6.507048965e-006 30.87519836
lwrist  4.824992743e-007 -3.790274832e-007 -26.69560051
lhand  -4.421331342e-031 -36.9980011 -10.61380005
lfingers  90 7.125020027 -90
lthumb  94.84887814 -25.44722039 101.1682619
rclavicle  0 -4.497500157e-015 -2.743230041e-014
rhumerus  -52.79399872 -26.79409981 -19.9190979
rradius  -5.16745672e-007 2.214343908e-008 104.1299973
rwrist  -7.499573258e-005 0.03438235447 -177.9069977
rhand  -1.770404001e-031 4.238279819 -6.695139885
rfingers  -90 -7.125020027 -90
rthumb  -84.68448373 -9.24609588 -59.92666512
rfemur  -13.0409174 16.2948246 12.0783577
rtibia  -1.593235373 -1.819053888 21.61952019
rfoot  0.03508226201 -23.05536461 -35.12044144
rtoes  4.174742371 19.57690822 -102.2893462
lfemur  -8.164022446 -17.01259422 -21.41829872
ltibia  2.7941854 -1.796070814 14.81982231
lfoot  1.176135302 -22.1970005 38.48095703
ltoes  -8.468054107 -18.18570479 -115.5026884
